# xmcd
#
# Track frame offsets:
#	150
#	21909
#	38712
#	61711
#	83470
#	100274
#
# Disc length: 1642 seconds
#
# Revision: 1
# Processed by: cddbd v1.5.2PL0 Copyright (c) Steve Scherf et al.
# Submitted via: EZCDAudioConverter 1.3.3.1
#
DISCID=39066806
DTITLE=乃木坂46 - ガールズルール
DYEAR=2013
DGENRE=JPop
TTITLE0=ガールズルール
TTITLE1=世界で一番　孤独なLover
TTITLE2=人間という楽器
TTITLE3=ガールズルール off vocal ver.
TTITLE4=世界で一番　孤独なLover off vocal ver.
TTITLE5=人間という楽器 off vocal ver.
EXTD=
EXTT0=
EXTT1=
EXTT2=
EXTT3=
EXTT4=
EXTT5=
PLAYORDER=
